<?xml version="1.0" encoding="utf-8" ?>
<svg xmlns="http://www.w3.org/2000/svg" xmlns:xlink="http://www.w3.org/1999/xlink" width="1024" height="1024">
	<path fill="#FEFEFE" d="M0 0L1024 0L1024 1024L0 1024L0 0Z"/>
	<path d="M501.631 41.7261Q511.327 41.5177 521.015 41.9792Q530.703 42.4407 540.336 43.5699Q549.968 44.6991 559.5 46.4907Q569.032 48.2822 578.417 50.7276Q581.685 51.5726 584.93 52.4983Q588.176 53.424 591.397 54.43Q594.619 55.4359 597.815 56.5214Q601.01 57.6068 604.178 58.7712Q607.346 59.9356 610.484 61.1782Q613.622 62.4207 616.728 63.7407Q619.835 65.0606 622.907 66.4572Q625.98 67.8538 629.017 69.3261Q632.054 70.7984 635.053 72.3456Q638.053 73.8928 641.013 75.5138Q643.973 77.1349 646.893 78.8288Q649.812 80.5228 652.688 82.2886Q655.564 84.0544 658.396 85.8909Q661.227 87.7275 664.013 89.6337Q666.798 91.5399 669.535 93.5146Q672.272 95.4893 674.959 97.5312Q677.647 99.5731 680.282 101.681Q682.918 103.789 685.501 105.962Q688.084 108.134 690.612 110.37Q693.14 112.606 695.612 114.904Q698.084 117.202 700.498 119.561Q702.912 121.919 705.267 124.337Q707.622 126.755 709.916 129.23Q712.211 131.705 714.443 134.237Q716.675 136.768 718.844 139.354Q721.013 141.94 723.117 144.579Q725.221 147.218 727.258 149.908Q729.296 152.599 731.267 155.339Q733.238 158.079 735.14 160.867Q737.042 163.655 738.874 166.489Q740.706 169.324 742.468 172.202Q744.229 175.081 745.919 178.003C781.548 239.331 793.616 321.577 775.38 390.304C787.146 405.177 798.736 420.368 811.255 434.612C814.019 427.65 815.787 420.234 818.383 413.178C821.808 424.766 825.891 436.182 829.791 447.616C827.31 447.605 824.823 447.682 822.341 447.721C827.923 458.968 845.753 482.46 854.914 490.388C859.067 480.277 861.527 469.561 865.445 459.361C870.425 471.335 874.153 484.163 878.171 496.501C852.531 496.32 826.99 498.19 801.359 498.291L526.487 498.491L246.866 498.587Q207.8 498.394 168.736 498.859C163.677 498.902 158.867 497.384 153.894 497.301C150.604 497.246 146.896 498.214 143.653 498.823C145.849 494.856 151.553 481.59 151.559 477.385L150.269 476.998C149.906 475.849 156.007 457.122 156.928 453.745C158.982 460.883 161.72 467.765 163.851 474.838C164.567 477.216 163.748 476.031 162.86 477.762C163.75 482.314 166.452 486.836 168.519 490.951C175.026 483.512 190.695 464.759 193.407 456.328C193.204 456.066 192.957 455.834 192.799 455.543C192.637 455.245 192.475 454.922 192.458 454.582C192.437 454.173 199.429 436.513 200.078 434.775C200.882 438.163 201.864 441.513 202.798 444.868C215.755 428.887 228.941 412.613 240.629 395.683C234.974 375.573 232.174 353.49 231.433 332.646C228.748 257.188 253.901 184.851 305.643 129.437Q307.62 127.301 309.641 125.208Q311.663 123.114 313.728 121.064Q315.794 119.014 317.903 117.008Q320.011 115.002 322.162 113.041Q324.312 111.081 326.504 109.166Q328.696 107.251 330.928 105.384Q333.16 103.516 335.431 101.696Q337.702 99.876 340.011 98.1047Q342.32 96.3333 344.666 94.6113Q347.012 92.8893 349.394 91.2175Q351.776 89.5457 354.193 87.9248Q356.61 86.3038 359.061 84.7346Q361.512 83.1653 363.996 81.6483Q366.479 80.1314 368.995 78.6675Q371.51 77.2036 374.056 75.7934Q376.601 74.3831 379.176 73.0272Q381.752 71.6713 384.355 70.3703Q386.958 69.0693 389.588 67.8239Q392.219 66.5784 394.875 65.389Q397.531 64.1996 400.212 63.0668Q402.892 61.9341 405.596 60.8584Q408.301 59.7828 411.027 58.7647Q413.753 57.7467 416.501 56.7867Q419.248 55.8267 422.015 54.9252Q424.782 54.0237 427.568 53.1811Q430.354 52.3385 433.156 51.5552Q435.959 50.7719 438.778 50.0482Q441.597 49.3245 444.43 48.6608Q447.264 47.997 450.111 47.3936Q452.958 46.7901 455.817 46.2472Q458.676 45.7042 461.546 45.222Q464.416 44.7399 467.296 44.3187C478.685 42.6801 490.143 42.1187 501.631 41.7261Z"/>
	<path fill="#FEFEFE" d="M514.146 179.706C516.692 181.516 528.012 199.255 530.968 203.468L609.776 317.862Q621.723 335.355 633.977 352.635C637.575 357.717 641.214 364.057 645.699 368.305C643.938 362.785 637.412 353.764 634.125 348.319C625.45 333.947 616.237 319.419 608.752 304.399C620.322 291.779 631.42 278.717 643.118 266.219C640.917 277.473 637.036 288.359 634.966 299.709C642.747 306.966 649.645 316.029 656.616 324.098C665.761 334.684 675.197 345.006 684.435 355.51C693.511 365.83 702.467 376.644 712.454 386.093C707.906 379.101 702.723 372.487 697.704 365.83Q680.675 343.051 662.385 321.271C656.056 313.593 649.429 306.135 643.29 298.306C645.195 284 650.53 267.614 654.1 253.323C673.763 279.091 694.832 303.926 715.199 329.144L809.4 445.848C805.587 456.075 800.606 465.606 793.534 473.966Q802.197 473.016 810.905 472.663C806.024 478.647 800.99 484.319 795.443 489.695C784.169 490.371 772.662 489.75 761.36 489.657Q733.295 489.466 705.229 489.559Q699.48 482.392 693.392 475.511L703.455 475.48C701.237 470.489 694.951 461.272 694.255 456.544C695.551 456.423 696.292 456.634 697.241 455.674C695.81 448.035 691.675 439.233 689.07 431.814C685.902 439.621 682.219 447.789 679.738 455.817C680.46 456.96 681.737 456.17 682.806 457.122C679.427 463.363 675.734 469.443 672.125 475.554C676.118 475.588 680.086 475.774 684.072 476.004C679.883 480.897 675.217 485.233 670.327 489.414L629.57 489.615C623.899 485.359 618.789 480.321 613.945 475.162C618.309 475.316 622.688 475.375 627.014 476.014C623.203 468.629 618.655 461.658 614.916 454.226L620.645 453.95Q615.533 441.458 611.245 428.66C609.044 434.156 602.311 448.879 601.655 453.719C602.897 454.491 604.459 454.256 605.872 454.244L594.449 475.562Q600.292 475.284 606.138 475.067C602.246 480.312 596.785 485.737 591.527 489.62Q560.916 489.395 530.305 489.514C523.9 484.497 517.787 478.346 512.464 472.213L530.338 471.834Q521.736 454.313 512.746 436.988L520.092 437.058C513.779 423.133 509.082 407.05 504.867 392.328C503.176 397.786 500.817 403.168 498.771 408.51L488.052 436.962L494.703 437.02C488.623 448.705 483.799 461.025 477.3 472.499Q484.786 472.437 492.272 472.53C487.09 477.651 483.116 484.177 478.956 490.127Q432.158 489.672 385.358 489.752Q381.994 486.004 379.209 481.809Q376.423 477.613 374.274 473.059C377.82 473.232 381.224 473.536 384.721 474.15C380.812 468.353 376.774 461.805 374.372 455.213C373.926 453.989 373.031 452.037 373.568 450.88C374.63 451.093 375.239 451.253 376.321 451.058C375.805 446.946 368.902 433.272 366.924 428.272C365.255 432.384 357.461 447.905 357.363 450.709C358.406 450.46 358.996 450.466 360.043 450.694L360.534 451.654C360.243 457.686 352.389 468.727 348.553 473.519C352.522 473.011 356.405 472.904 360.404 472.878C357.073 479.639 352.853 485.613 346.72 490.036C343.321 490.157 339.892 490.063 336.489 490.057L297.019 489.832C291.441 484.43 286.452 478.689 282.253 472.148Q289.848 472.29 297.439 472.563C291.678 463.238 285.075 453.897 281.973 443.276L287.762 442.799C281.106 430.568 277.093 418.014 272.793 404.861C268.889 418.382 264.081 430.621 257.11 442.897L263.413 443.165C259.816 453.466 254.418 462.586 248.968 471.982L262.646 472.017C259.778 479.15 253.508 484.529 248.222 489.897Q230.964 489.886 213.707 489.702C210.417 485.297 207.798 480.833 205.485 475.845L212.812 475.864C210.348 468.794 207.784 461.743 205.814 454.515C222.801 431.468 241.03 409.204 258.402 386.43C271.893 368.743 284.593 349.892 299.242 333.161C302.582 332.537 305.963 332.058 309.319 331.516C300.684 348.528 291.374 370.579 285.159 388.634C294.073 373.189 313.084 340.92 317.037 324.779C312.359 325.634 307.788 326.93 303.201 328.166L352.307 263.78C348.99 271.685 346.183 279.808 342.712 287.64C346.237 292.148 348.877 297.169 351.572 302.192C340.387 316.205 330.194 331.163 319.188 345.355C323.184 353.318 327.205 362.182 329.523 370.792C326.48 379.813 320.624 387.814 317.756 396.857C323.551 388.099 329.064 379.279 334.433 370.256C331.922 362.816 328.907 355.477 326.14 348.124C336.89 333.169 348.555 318.828 359.034 303.677C356.063 298.348 352.892 293.113 349.809 287.846C355.181 274.787 360.914 261.964 366.029 248.785C375.755 258.606 384.226 270.322 392.861 281.12Q406.497 298.135 421.086 314.34C410.913 327.093 401.625 340.629 391.908 353.733C383.795 364.673 371.526 380.01 365.138 391.54C367.604 390.889 424.047 322.83 431.233 314.572C426.879 309.696 422.691 304.843 418.077 300.201L470.829 229.639C481.557 215.564 492.913 201.902 503.215 187.517C500.701 198.024 497.499 208.397 494.714 218.839C492.328 227.791 490.346 236.827 488.182 245.832C486.423 253.155 483.886 260.987 483.294 268.496C483.085 271.153 483.59 273.714 484.071 276.312Q477.098 281.442 470.212 286.688C474.479 292.701 479.598 298.036 483.76 304.172Q469.102 327.283 455.077 350.784C447.478 363.313 439.723 375.718 432.567 388.506L432.756 389.105Q453.664 358.993 473.484 328.154C478.611 320.279 485.935 311.267 489.313 302.691C485.11 297.648 480.551 292.859 476.258 287.883C480.039 284.214 484.676 280.959 488.751 277.567C487.647 274.031 486.965 270.388 486.22 266.764C490.175 257.798 492.731 247.605 495.798 238.251Q505.632 209.185 514.146 179.706Z"/>
	<path fill="#FEFEFE" d="M498.979 52.2792C524.657 50.5656 552.016 54.7065 576.798 61.2543Q579.946 62.0801 583.073 62.9839Q586.2 63.8877 589.304 64.869Q592.407 65.8503 595.485 66.9084Q598.563 67.9666 601.614 69.1009Q604.665 70.2353 607.687 71.4451Q610.708 72.655 613.699 73.9396Q616.69 75.2242 619.648 76.5828Q622.605 77.9414 625.528 79.3731Q628.452 80.8048 631.338 82.3087Q634.225 83.8126 637.073 85.3879Q639.921 86.9631 642.73 88.6087Q645.538 90.2543 648.304 91.9692Q651.071 93.6841 653.794 95.4672Q656.517 97.2504 659.195 99.1007Q661.873 100.951 664.504 102.867Q667.135 104.784 669.717 106.765Q672.3 108.746 674.832 110.791Q677.364 112.835 679.845 114.942Q682.326 117.049 684.754 119.218Q687.182 121.386 689.555 123.614Q691.928 125.841 694.244 128.127Q696.561 130.414 698.821 132.757Q701.08 135.1 703.28 137.498Q705.481 139.896 707.621 142.349Q709.761 144.801 711.839 147.306Q713.918 149.811 715.933 152.367Q717.949 154.923 719.9 157.528Q721.852 160.133 723.737 162.786Q725.623 165.439 727.443 168.137Q729.262 170.836 731.014 173.58Q732.766 176.323 734.449 179.109Q736.132 181.895 737.745 184.722C762.727 227.814 773.208 276.265 773.117 325.749C773.083 343.93 771.753 362.807 767.076 380.429L655.041 242.176C650.069 247.131 645.574 252.72 640.792 257.878Q622.6 277.204 604.899 296.979C595.435 282.298 585.134 268.132 575.295 253.695Q544.289 207.821 512.592 162.423L509.928 165.349L412.934 292.876Q398.021 274.935 383.486 256.686C377.589 249.232 371.901 241.533 365.69 234.338C362.255 238.319 359.294 242.844 356.054 247.008L332.586 276.975Q304.499 313.806 275.853 350.203C266.668 362.047 257.703 374.064 248.318 385.751C245.147 368.388 242.305 351.032 241.587 333.363C238.667 261.516 262.792 191.028 311.849 138.042Q314.075 135.6 316.363 133.214Q318.65 130.829 320.996 128.502Q323.342 126.174 325.746 123.907Q328.15 121.639 330.61 119.432Q333.07 117.226 335.585 115.082Q338.1 112.938 340.668 110.857Q343.236 108.777 345.855 106.762Q348.474 104.747 351.143 102.798Q353.812 100.849 356.53 98.9683Q359.247 97.0872 362.01 95.275Q364.774 93.4627 367.582 91.7204Q370.39 89.9782 373.241 88.3069Q376.092 86.6357 378.984 85.0366Q381.876 83.4375 384.808 81.9116Q387.739 80.3856 390.708 78.9337Q393.676 77.4818 396.681 76.105Q399.685 74.7281 402.723 73.4271Q405.761 72.1261 408.83 70.9018Q411.9 69.6775 414.999 68.5307Q418.099 67.3839 421.226 66.3152Q424.353 65.2466 427.506 64.2568Q430.659 63.2671 433.836 62.3568Q437.013 61.4465 440.212 60.6163Q443.41 59.7861 446.629 59.0364Q449.848 58.2868 453.084 57.6182Q456.32 56.9497 459.573 56.3626Q462.825 55.7755 466.091 55.2703Q469.357 54.765 472.634 54.342Q475.912 53.9189 479.199 53.5783Q482.486 53.2377 485.781 52.9797Q489.075 52.7217 492.375 52.5466Q495.676 52.3714 498.979 52.2792Z"/>
	<path d="M354.843 141.703C358.598 141.531 362.321 141.426 366.074 141.706C380.03 142.751 395.847 147.796 405.215 158.759C408.195 156.304 411.246 153.901 414.517 151.841C428.225 143.212 447.164 139.638 463.041 143.182C457.283 143.478 451.68 144.412 446.011 145.394C436.754 147.593 427.404 150.644 419.429 155.959C416.249 158.079 407.089 167.596 405.764 167.953C405.05 167.717 404.649 167.713 404.146 167.135C388.202 148.818 368.566 144.908 345.346 143.293L344.976 142.856C347.82 141.883 351.806 141.977 354.843 141.703Z"/>
	<path d="M492.565 89.7408C506.745 88.6229 519.227 89.6876 530.519 99.1017C541.884 90.9391 551.73 89.1807 565.591 90.254L556.552 92.3179C545.569 94.8516 538.394 100.008 530.504 107.701C521.567 97.9372 511.779 93.3367 498.728 91.5259C496.783 91.256 493.491 91.3177 491.846 90.2692L492.565 89.7408Z"/>
	<path d="M613.579 185.658C627.24 184.214 639.421 186.189 650.47 194.566C662.254 184.988 675.807 184.96 690.274 185.992L679.512 187.64C667.814 189.461 658.793 193.634 650.365 201.941C642.457 194.125 632.815 189.297 621.734 187.806C617.768 187.272 613.753 187.31 609.806 186.619L609.841 186.316C611.035 185.858 612.317 185.798 613.579 185.658Z"/>
	<path fill="#FEFEFE" d="M823.058 473.503L829.522 473.491Q835.937 480.354 841.397 487.999C840.347 488.066 839.254 488.174 838.203 488.129C833.529 487.929 826.133 476.989 823.058 473.503Z"/>
	<path fill="#FEFEFE" d="M191.325 475.415C191.371 475.483 191.426 475.546 191.463 475.619C192.627 477.888 189.865 486.73 189.212 489.522L181.219 489.551L180.936 489.364C181.725 486.198 188.959 478.333 191.325 475.415Z"/>
	<path d="M831.814 676.212C840.034 676.236 848.41 677.385 856.611 678.027Q876.429 679.482 896.262 680.706L929.464 682.482C933.978 682.697 940.438 682.206 944.641 683.36C945.59 683.621 945.631 683.656 946.08 684.552L945.344 685.506C944.744 685.769 944.231 686.011 943.572 686.094C940.074 686.536 936.329 686.29 932.792 686.482L899.224 688.102C878.508 689.154 857.645 691.284 836.924 691.689C821.827 691.984 806.704 691.252 791.61 691.072C781.984 710.411 772.563 729.496 760.962 747.764C725.44 803.698 669.716 850.975 607.911 875.203C588.741 882.717 569.494 887.445 549.467 891.919L524.442 957.594C519.91 969.31 514.585 981.057 510.868 993.046C507.678 982.687 503.255 972.625 499.463 962.466Q486.644 927.564 473.124 892.928C463.784 890.688 454.289 889.223 444.981 886.797Q438.05 885.056 431.207 882.992Q424.365 880.929 417.627 878.547Q410.888 876.166 404.269 873.473Q397.649 870.779 391.163 867.779Q384.676 864.779 378.337 861.479Q371.998 858.179 365.82 854.586Q359.643 850.993 353.639 847.115Q347.636 843.237 341.821 839.083C304.613 813.309 271.282 776.641 248.762 737.408C239.588 721.425 233.372 707.016 225.563 690.552C210.894 690.863 196.246 691.742 181.566 691.568C172.105 691.455 82.749 686.687 80.876 685.793C79.941 685.346 80.262 685.607 79.8601 684.561C79.9734 684.42 80.0693 684.263 80.2001 684.139C81.0141 683.364 82.0826 683.119 83.1651 682.985C88.3638 682.345 93.8875 682.348 99.1296 682.051L134.303 680.144Q150.739 679.212 167.165 678.11C174.745 677.564 182.431 676.675 190.029 676.581C197.406 676.49 204.979 677.293 212.348 677.725C230.969 678.818 249.779 680.359 268.429 680.52L583.748 680.687L694.808 681.305C714.691 681.441 734.739 681.989 754.609 681.454C780.29 680.763 806.207 678.252 831.814 676.212Z"/>
	<path fill="#FEFEFE" d="M245.104 690.249L675.566 690.89C710.224 691.108 744.891 690.561 779.547 691.01Q775.199 700.608 770.421 709.999C763.918 722.658 757.064 735.143 749.105 746.956C710.279 804.589 652.534 850.525 586.17 871.881C575.849 875.187 565.229 878.546 554.431 879.811C556.369 873.444 558.991 867.172 561.325 860.935L578.446 816.27C581.508 808.346 584.893 800.531 587.524 792.449C577.948 796.774 567.052 799.596 557.057 802.88C542.077 807.802 527.196 813.071 512.091 817.599C502.429 815.091 492.901 811.304 483.407 808.177C467.981 803.095 452.385 798.281 437.067 792.913C439.892 803.919 444.347 814.784 448.266 825.448C455.049 843.908 462.019 862.313 468.573 880.855C447.913 878.878 422.83 870.212 403.796 861.946Q400.291 860.403 396.824 858.776Q393.357 857.149 389.93 855.439Q386.503 853.729 383.119 851.936Q379.734 850.144 376.394 848.271Q373.053 846.398 369.759 844.445Q366.465 842.492 363.218 840.46Q359.972 838.429 356.776 836.319Q353.579 834.21 350.434 832.024Q347.289 829.838 344.198 827.578Q341.107 825.317 338.071 822.982Q335.035 820.647 332.057 818.24Q329.078 815.833 326.158 813.355Q323.238 810.877 320.378 808.329Q317.519 805.782 314.722 803.166Q311.925 800.55 309.191 797.868Q306.458 795.185 303.79 792.438Q301.122 789.69 298.521 786.879Q295.92 784.068 293.387 781.195Q290.854 778.323 288.392 775.39Q285.929 772.457 283.538 769.465Q281.146 766.474 278.828 763.426Q276.509 760.378 274.264 757.275Q272.02 754.172 269.851 751.016Q267.682 747.859 265.589 744.652Q263.497 741.444 261.482 738.187Q259.467 734.93 257.532 731.626Q255.596 728.321 253.74 724.971Q251.885 721.62 250.111 718.227Q248.336 714.833 246.644 711.397Q244.952 707.961 243.344 704.486Q241.735 701.01 240.21 697.497Q238.686 693.984 237.246 690.435L245.104 690.249Z"/>
	<path d="M504.828 763.652C513.847 762.981 523.638 763.423 531.695 768.017C535.756 770.333 539.465 773.952 540.536 778.65C541.339 782.17 540.58 785.82 538.632 788.837C534.225 795.66 526.302 797.826 518.857 799.341C509.593 800.443 499.11 799.333 491.106 794.191C487.069 791.598 483.603 787.677 482.692 782.844C482.054 779.459 482.79 776.116 484.808 773.325C489.369 767.014 497.582 764.878 504.828 763.652Z"/>
	<path fill="#FEFEFE" d="M508.962 765.646C515.302 765.037 522.3 766.544 527.556 770.177C530.75 772.384 533.58 775.618 534.232 779.556C534.722 782.513 533.825 785.472 532.025 787.834C528.089 792.998 521.696 794.225 515.669 795.114C508.597 795.494 501.222 794.606 495.183 790.603C492.357 788.73 489.709 785.873 489.1 782.425C488.626 779.736 489.355 777.041 490.917 774.828C494.904 769.176 502.45 766.745 508.962 765.646Z"/>
	<path d="M449.13 707.122C457.811 706.56 466.723 706.882 475.428 706.882L520.638 706.919L556.662 707.03C561.247 707.05 565.986 706.522 570.543 706.878C572.164 707.004 573.265 707.31 574.535 708.368C574.953 709.694 574.945 709.751 574.493 711.066C571.672 713.347 567.128 712.53 563.702 712.446L516.38 712.512C515.954 715.91 515.97 719.422 515.844 722.846C513.244 722.935 510.632 722.904 508.03 722.922L507.998 712.511L468.328 712.557C462.614 712.563 456.006 713.23 450.389 712.451C449.04 712.264 449.057 712.075 448.307 711.015C448.163 709.344 448.426 708.645 449.13 707.122Z"/>
	<path d="M658.546 706.582C666.286 706.376 725.397 705.691 727.938 707.379C728.541 707.779 728.523 708.401 728.701 709.051C728.277 710.698 728.261 710.971 726.962 712.183L681.352 712.425C674.103 712.459 665.443 713.399 658.395 712C657.331 711.114 657.215 711.029 656.827 709.711C657.078 708.129 657.487 707.692 658.546 706.582Z"/>
	<path d="M368.327 791.747C380.994 791.654 393.878 791.33 406.526 791.682C408.802 791.745 411.309 791.718 412.964 793.483C413.059 794.799 412.918 794.946 412.26 796.109C409.301 798.006 386.973 797.014 381.75 796.993L351.888 796.961C347.86 796.965 343.393 797.555 339.435 796.897C337.874 796.637 337.135 796.296 336.236 795.001C336.335 794.377 336.267 793.9 336.751 793.436C339.49 790.814 362.895 791.805 368.327 791.747Z"/>
	<path d="M612.102 791.755C625.977 791.559 639.868 791.792 653.746 791.701C661.789 791.649 670.576 790.811 678.551 791.646C680.3 791.829 681.801 792.084 683.232 793.135C683.76 794.35 683.72 794.37 683.375 795.658C682.125 796.761 681.725 796.715 680.125 796.965L632.604 796.939C625.441 796.947 617.601 797.602 610.498 796.944C609.755 796.875 609.256 796.58 608.665 796.156C608.214 794.785 608.089 794.556 608.436 793.176C609.677 792.005 610.491 791.92 612.102 791.755Z"/>
	<path d="M298.407 706.713C313.482 706.47 328.598 706.703 343.675 706.846C349.581 706.902 355.889 706.271 361.719 706.853C363.044 706.986 364.336 707.165 365.357 708.1C365.989 708.678 365.84 709.185 365.925 709.981C365.222 711.58 365.151 711.593 363.617 712.448L322.733 712.403C315.214 712.438 306.61 713.339 299.212 712.148C297.524 711.877 296.643 711.508 295.608 710.154C295.619 709.671 295.592 709.432 295.771 708.938C296.237 707.647 297.255 707.204 298.407 706.713Z"/>
	<path d="M607.893 731.163C621.166 730.609 634.627 730.989 647.918 730.964C656.444 730.948 665.662 730.236 674.109 731.228C675.238 732.004 675.334 731.985 675.731 733.278C675.453 734.818 675.132 735.26 674.093 736.341C658.769 736.515 643.422 736.358 628.095 736.347C622.194 736.343 614.513 737.245 608.759 736.07C607.392 735.791 607.275 735.558 606.568 734.473C606.764 732.832 606.933 732.519 607.893 731.163Z"/>
	<path d="M555.36 763.612Q577.064 763.811 598.768 763.737C604.743 763.745 611.903 763.027 617.772 763.953C618.983 764.144 619.197 764.432 620.038 765.264C620.411 766.862 619.972 767.717 619.354 769.148C614.873 769.56 559.473 769.583 556.769 768.899C555.378 768.548 555.226 768.128 554.539 766.995C554.507 765.558 554.692 764.883 555.36 763.612Z"/>
	<path d="M406.235 763.731L445.711 763.744C451.365 763.755 457.27 763.211 462.889 763.613C464.543 763.732 465.87 763.981 467.393 764.634C468.283 765.651 468.251 765.617 468.251 766.972C467.532 768.285 467.399 768.48 466.115 769.234C451.136 769.035 436.133 769.163 421.152 769.128C416.614 769.117 410.345 770.017 406.006 769.062C404.664 768.766 404.309 768.37 403.587 767.252C403.621 766.278 403.653 765.763 404.141 764.884C404.668 763.936 405.256 764.038 406.235 763.731Z"/>
	<path d="M352.079 731.143C364.409 730.519 376.961 730.985 389.313 730.995C397.147 731.001 405.817 730.297 413.56 731.264C414.942 731.436 415.141 731.389 415.966 732.482C416.098 733.97 415.726 734.761 415.106 736.056C403.247 736.711 391.069 736.223 379.176 736.256C371.146 736.279 362.377 736.99 354.425 736.176C352.884 736.019 352.287 735.98 351.294 734.77C351.145 733.153 351.392 732.547 352.079 731.143Z"/>
	<path d="M486.138 740.636L519.567 740.477C523.873 740.461 529.65 739.747 533.774 740.702C535.042 740.996 535.134 741.415 535.771 742.455C535.842 744.059 535.469 744.882 534.764 746.258C527.714 746.531 490.719 747.267 486.967 746.339C485.614 746.004 485.506 745.606 484.883 744.486C484.943 742.871 485.373 741.998 486.138 740.636Z"/>
	<path d="M307.43 763.67C313.934 763.725 352.469 762.831 355.46 764.03C356.649 764.506 356.703 764.938 357.1 766.032C356.858 767.614 356.467 768.093 355.446 769.243C345.835 769.006 336.186 769.136 326.572 769.21C320.309 769.258 312.553 770.146 306.503 768.581C305.49 767.611 305.556 767.604 305.42 766.195C306.037 764.738 306.134 764.568 307.43 763.67Z"/>
	<path d="M672.974 763.731C680.557 763.678 708.763 762.483 713.998 764.412C714.764 765.437 714.819 765.962 714.849 767.228C714.09 768.658 714.145 768.614 712.625 769.17C706.481 769.068 674.736 770.323 671.162 768.235C670.361 767.103 670.303 767.069 670.348 765.693C671.322 764.326 671.385 764.267 672.974 763.731Z"/>
	<path d="M390.003 831.629C399.489 832.116 409.174 830.9 418.593 831.641C420.238 831.77 421.14 831.933 422.206 833.21C422.383 834.842 422.033 835.444 421.303 836.843C414.806 836.945 395.438 838.175 390.599 836.588C389.358 836.182 388.982 835.729 388.428 834.599C388.721 833.092 388.998 832.818 390.003 831.629Z"/>
	<path d="M604.064 831.594C611.99 831.853 620.396 830.901 628.214 831.831C629.797 832.02 630.918 832.271 631.965 833.571C632.114 835.2 631.722 835.57 630.954 836.975C623.8 837.001 612.654 837.988 605.84 836.788C604.23 836.505 603.56 836.109 602.648 834.774C602.839 833.151 603.12 832.866 604.064 831.594Z"/>
	<path fill="#FEFEFE" d="M445.921 801.807C467.545 809.855 489.984 815.869 511.732 823.604C534.081 817.241 555.999 809.077 578.139 802.001C571.001 819.41 564.506 837.117 557.815 854.703L535.138 913.857Q523.304 945.399 510.903 976.723C493.932 929.939 475.305 883.748 458.522 836.892C454.332 825.194 449.736 813.636 445.921 801.807Z"/>
	<path d="M834.813 506.21C841.524 505.87 848.664 506.915 855.359 507.545C872.352 509.144 889.148 511.528 906.092 513.452Q919.357 514.869 932.673 515.668C936.14 515.899 939.776 515.793 943.206 516.236C944.528 516.407 944.887 516.578 945.906 517.377L946.043 518.541C942.483 520.385 934.018 519.455 929.708 519.511Q900.127 519.919 870.583 521.438C859.415 521.933 848.175 522.712 837 522.778C812.012 522.926 787.003 519.986 762.016 519.841L439.438 519.582L319.001 519.472C298.237 519.479 277.419 519.227 256.661 519.685C235.316 520.156 213.948 521.382 192.625 522.446Q175.417 523.198 158.196 522.857C140.288 522.572 122.278 521.237 104.402 520.122C97.2746 519.678 89.3086 520.058 82.3242 518.807C80.964 518.563 80.2446 518.283 79.2923 517.298L79.5571 516.253C84.6584 515.32 90.164 515.368 95.3408 515.053Q109.527 514.199 123.702 513.185C136.32 512.212 149.024 511.149 161.589 509.626C169.674 508.645 178.133 506.85 186.254 506.68C202.107 506.349 218.512 508.514 234.392 509.269C253.2 510.164 272.194 509.869 291.022 509.871L615.346 509.775L732.586 509.835C753.882 509.88 775.476 510.796 796.74 509.78C809.445 509.173 822.134 507.297 834.813 506.21Z"/>
	<path d="M524.695 564.692C525.001 564.672 525.307 564.647 525.613 564.631C534.533 564.18 544.817 568.765 551.182 574.864C557.919 581.32 561.414 590.439 561.611 599.687C561.861 611.376 557.237 619.835 549.385 628.134C552.882 631.834 556.583 635.461 559.657 639.526L554.77 643.859Q549.678 637.604 543.801 632.08C540.38 632.378 534.016 635.874 529.174 636.453C520.42 637.499 510.3 633.926 503.465 628.514C495.98 622.587 491.2 614.348 490.148 604.831C489.078 595.139 491.662 585.812 497.829 578.23C504.805 569.655 513.907 565.761 524.695 564.692Z"/>
	<path fill="#FEFEFE" d="M523.797 571.689C531.562 571.338 539.648 574.026 545.356 579.328C551.078 584.643 554.488 591.902 554.664 599.743C554.868 608.841 550.877 616.111 544.808 622.502C540.876 618.586 536.969 614.697 533.342 610.491L527.836 615.038L534.528 621.703C536.139 623.221 537.605 624.816 539.065 626.479C535.85 627.759 532.478 628.885 529.039 629.356Q528.371 629.453 527.699 629.517Q527.027 629.581 526.353 629.611Q525.679 629.641 525.004 629.637Q524.329 629.633 523.655 629.595Q522.981 629.557 522.31 629.485Q521.639 629.414 520.973 629.308Q520.306 629.203 519.645 629.064Q518.985 628.926 518.332 628.754Q517.68 628.582 517.036 628.378Q516.393 628.174 515.761 627.937Q515.129 627.701 514.509 627.433Q513.89 627.166 513.284 626.867Q512.679 626.568 512.089 626.24Q511.5 625.911 510.928 625.553Q510.356 625.196 509.802 624.809Q509.248 624.423 508.715 624.01C502.366 619.166 497.963 611.738 497.103 603.768C496.264 595.999 498.879 587.56 503.919 581.563C509.205 575.275 515.789 572.471 523.797 571.689Z"/>
	<path d="M259.454 565.005C267.421 564.832 276.307 563.741 283.56 567.671C287.771 569.954 291.022 573.621 292.274 578.296C293.617 583.313 292.952 589.26 290.361 593.777C287.12 599.427 282.449 601.146 276.53 602.73C283.708 613.069 289.992 624.032 296.475 634.813L288.458 635.019L284.963 628.875C280.313 621.138 275.58 613.307 270.539 605.823C269.709 604.591 269.035 603.675 267.559 603.376C265.152 606.103 266.3 630.205 266.317 635.02L259.377 635.08L259.454 565.005Z"/>
	<path fill="#FEFEFE" d="M266.193 571.653C271.933 571.437 278.31 571.742 282.85 575.721C285.031 577.632 286.566 580.462 286.6 583.4C286.643 587.03 284.667 590.595 282.288 593.183C277.108 596.458 272.211 596.502 266.284 596.602L266.193 571.653Z"/>
	<path d="M346.645 564.278C348.94 566.55 371.325 626.142 374.922 634.964L367.683 635.116C365.032 628.051 362.462 620.942 359.379 614.052Q353.932 613.765 348.48 613.62L334.32 613.521C331.747 620.741 328.903 627.881 326.171 635.043L318.969 635.075C323.788 620.538 329.836 606.392 335.387 592.128C338.941 582.993 341.948 572.821 346.645 564.278Z"/>
	<path fill="#FEFEFE" d="M346.523 581.292C349.513 584.869 354.264 601.667 356.026 607.056L346.75 607.138L337.034 607.114C339.321 598.484 343.388 589.685 346.523 581.292Z"/>
	<path d="M588.694 566.038L595.467 565.997Q595.524 581.805 595.421 597.613C595.387 603.882 594.816 610.722 595.846 616.914C596.341 619.892 597.39 622.593 599.402 624.882Q599.867 625.415 600.385 625.896Q600.902 626.377 601.468 626.801Q602.033 627.225 602.639 627.588Q603.246 627.951 603.887 628.249Q604.528 628.546 605.197 628.775Q605.865 629.004 606.554 629.162Q607.243 629.32 607.945 629.405Q608.646 629.49 609.353 629.501C612.864 629.582 616.152 628.314 618.606 625.786C620.969 623.352 622.389 620.085 623.06 616.791C624.361 610.397 623.729 603.131 623.708 596.612L623.613 566.036L630.412 566.029L630.164 572.568Q630.055 586.229 630.138 599.89C630.142 606.421 630.65 613.466 629.101 619.854C628.216 623.502 626.725 626.924 624.224 629.763C620.645 633.826 615.646 635.874 610.296 636.158C604.96 636.442 599.865 634.916 595.977 631.166C592.666 627.974 590.609 623.661 589.586 619.219C587.829 611.595 588.593 603.201 588.619 595.426L588.694 566.038Z"/>
	<path d="M661.605 565.749Q677.471 565.589 693.338 565.649C693.305 567.953 693.177 570.262 693.089 572.564C684.863 573.241 676.44 572.906 668.185 572.89C668.051 579.333 668.147 585.798 668.135 592.243L694.611 592.418L694.612 598.701L668.217 598.766L668.162 607.25L668.26 627.651C675.941 627.915 683.665 627.749 691.351 627.735L691.405 634.66Q676.642 634.825 661.879 634.739C661.795 611.747 661.416 588.739 661.605 565.749Z"/>
	<path d="M734.532 564.577C736.388 564.48 738.135 564.501 739.961 564.896C745.01 565.987 748.522 569.46 751.26 573.637L745.636 578.074C745.466 577.778 745.29 577.484 745.133 577.18C744.756 576.45 744.464 575.684 743.976 575.013C742.433 572.889 739.558 571.601 736.997 571.397Q736.515 571.355 736.031 571.365Q735.547 571.375 735.067 571.436Q734.587 571.498 734.116 571.61Q733.646 571.722 733.189 571.884Q732.733 572.045 732.297 572.255Q731.861 572.464 731.449 572.719Q731.037 572.973 730.655 573.27Q730.273 573.567 729.925 573.903C728.282 575.515 727.504 577.758 727.481 580.033C727.375 590.624 741.476 594.839 747.899 601.308C751.973 605.41 754.497 610.327 754.393 616.192C754.302 621.281 752.456 627.645 748.625 631.2C744.166 635.336 738.008 635.97 732.221 635.614C731.471 635.396 730.733 635.181 730.005 634.897C723.901 632.518 720.33 627.858 717.892 621.983L723.545 618.463C724.974 621.667 726.528 625.091 729.531 627.127C731.949 628.766 735.264 629.48 738.126 628.873C741.061 628.251 743.784 626.441 745.347 623.87C746.987 621.174 747.641 618.183 747.348 615.054C745.988 600.533 724.82 599.516 721.425 585.375C720.391 581.069 721.04 574.996 723.535 571.231C726.144 567.295 730.069 565.543 734.532 564.577Z"/>
	<path d="M205.961 564.761Q219.216 564.596 232.472 564.569L232.467 571.882L217.88 571.958L217.911 631.125C217.965 632.479 218.043 633.343 217.492 634.616C215.856 635.753 213.291 635.271 211.371 635.192L211.076 571.955L196.814 571.961C196.585 569.625 196.698 567.253 196.722 564.908C199.763 564.694 202.907 564.806 205.961 564.761Z"/>
	<path d="M774.289 564.595C786.302 564.396 798.337 564.503 810.352 564.473L810.213 571.238C805.451 571.102 800.676 571.199 795.912 571.229L796.018 620.75L796.029 634.845L789.417 634.925L789.053 571.336C784.132 570.995 779.142 571.097 774.208 571.044L774.289 564.595Z"/>
	<path d="M441.606 566.531L448.157 566.549L448.007 627.977L467.7 627.964L467.653 634.852L441.512 634.98L441.606 566.531Z"/>
	<path d="M402.548 566.628L409.099 566.688L409.148 635.026L402.489 635.055L402.548 566.628Z"/>
	<path d="M866.119 589.776Q866.376 589.712 866.635 589.66Q866.895 589.608 867.157 589.569Q867.419 589.53 867.682 589.504Q867.946 589.477 868.21 589.464Q868.475 589.45 868.74 589.45Q869.004 589.449 869.269 589.462Q869.533 589.474 869.797 589.5Q870.06 589.525 870.322 589.563Q870.584 589.601 870.844 589.652Q871.104 589.703 871.361 589.766Q871.618 589.83 871.872 589.906Q872.126 589.982 872.375 590.07Q872.625 590.158 872.87 590.258Q873.115 590.359 873.355 590.471Q873.595 590.583 873.829 590.706Q874.063 590.83 874.291 590.965Q874.519 591.1 874.74 591.246Q874.961 591.392 875.174 591.548Q875.388 591.705 875.594 591.871Q875.799 592.038 875.997 592.214Q876.194 592.391 876.383 592.577Q876.571 592.763 876.75 592.958Q876.93 593.153 877.099 593.356Q877.268 593.559 877.428 593.771Q877.587 593.982 877.736 594.201Q877.885 594.42 878.023 594.646Q878.161 594.872 878.288 595.104Q878.415 595.337 878.53 595.575Q878.646 595.813 878.749 596.057Q878.853 596.301 878.945 596.549Q879.036 596.798 879.116 597.05Q879.195 597.303 879.262 597.559Q879.329 597.815 879.383 598.074Q879.438 598.333 879.48 598.595Q879.521 598.856 879.55 599.12Q879.579 599.383 879.595 599.647Q879.611 599.911 879.614 600.176Q879.618 600.441 879.608 600.706Q879.598 600.97 879.575 601.234Q879.553 601.498 879.517 601.76Q879.482 602.023 879.434 602.283Q879.385 602.543 879.325 602.801Q879.264 603.059 879.19 603.313Q879.117 603.567 879.031 603.818Q878.946 604.068 878.848 604.315Q878.75 604.561 878.64 604.802Q878.531 605.043 878.409 605.278Q878.288 605.513 878.156 605.743Q878.023 605.972 877.879 606.194Q877.736 606.417 877.581 606.632Q877.427 606.847 877.262 607.054Q877.098 607.262 876.923 607.461Q876.749 607.66 876.565 607.85Q876.381 608.041 876.188 608.222Q875.995 608.403 875.793 608.575Q875.591 608.746 875.381 608.908Q875.172 609.069 874.954 609.22Q874.737 609.371 874.512 609.512Q874.288 609.652 874.057 609.781Q873.825 609.911 873.588 610.028Q873.351 610.146 873.109 610.252Q872.866 610.358 872.619 610.452Q872.371 610.547 872.119 610.628Q871.867 610.71 871.612 610.78Q871.267 610.874 870.916 610.945Q870.566 611.016 870.211 611.064Q869.857 611.112 869.5 611.136Q869.143 611.161 868.785 611.162Q868.428 611.163 868.071 611.14Q867.714 611.117 867.359 611.071Q867.004 611.025 866.653 610.956Q866.302 610.886 865.957 610.794Q865.611 610.702 865.273 610.587Q864.934 610.472 864.603 610.335Q864.273 610.198 863.952 610.04Q863.631 609.881 863.322 609.702Q863.012 609.523 862.715 609.324Q862.418 609.125 862.135 608.907Q861.851 608.688 861.583 608.452Q861.314 608.216 861.062 607.962Q860.81 607.708 860.575 607.439Q860.34 607.169 860.123 606.884Q859.906 606.6 859.709 606.302Q859.511 606.004 859.334 605.693Q859.156 605.382 858.999 605.061Q858.843 604.739 858.708 604.408Q858.572 604.077 858.459 603.737Q858.346 603.398 858.256 603.052Q858.165 602.706 858.098 602.355Q858.03 602.003 857.986 601.648Q857.942 601.293 857.921 600.936Q857.9 600.579 857.903 600.222Q857.906 599.864 857.932 599.507Q857.959 599.15 858.008 598.796Q858.058 598.442 858.131 598.092Q858.204 597.742 858.3 597.397Q858.396 597.052 858.514 596.715Q858.632 596.377 858.773 596.048Q858.913 595.719 859.075 595.4Q859.236 595.081 859.419 594.774Q859.601 594.466 859.803 594.171Q860.005 593.876 860.226 593.595Q860.447 593.314 860.687 593.048Q860.926 592.782 861.182 592.532Q861.438 592.282 861.71 592.05Q861.982 591.818 862.269 591.604Q862.555 591.39 862.855 591.196Q863.156 591.001 863.468 590.827Q863.78 590.653 864.103 590.499Q864.426 590.346 864.759 590.214Q865.091 590.082 865.432 589.973Q865.772 589.863 866.119 589.776Z"/>
	<path fill="#FEFEFE" d="M866.45 593.296Q866.62 593.241 866.793 593.194Q866.966 593.147 867.141 593.109Q867.316 593.071 867.493 593.042Q867.67 593.012 867.848 592.992Q868.026 592.971 868.204 592.959Q868.383 592.947 868.562 592.944Q868.741 592.941 868.921 592.946Q869.1 592.952 869.278 592.967Q869.457 592.981 869.634 593.004Q869.812 593.028 869.988 593.06Q870.164 593.092 870.339 593.132Q870.513 593.173 870.686 593.222Q870.858 593.271 871.028 593.329Q871.197 593.386 871.364 593.452Q871.53 593.518 871.694 593.592Q871.857 593.666 872.016 593.748Q872.175 593.83 872.33 593.919Q872.485 594.009 872.636 594.106Q872.786 594.203 872.932 594.308Q873.078 594.412 873.218 594.524Q873.358 594.635 873.493 594.754Q873.627 594.872 873.756 594.997Q873.884 595.121 874.006 595.252Q874.129 595.383 874.245 595.52Q874.36 595.657 874.469 595.799Q874.578 595.942 874.679 596.089Q874.781 596.237 874.875 596.389Q874.97 596.541 875.056 596.698Q875.143 596.855 875.222 597.016Q875.301 597.177 875.372 597.341Q875.442 597.506 875.505 597.673Q875.568 597.841 875.622 598.012Q875.676 598.183 875.722 598.356Q875.768 598.529 875.805 598.704Q875.842 598.88 875.871 599.056Q875.9 599.233 875.92 599.411Q875.939 599.589 875.951 599.768Q875.962 599.947 875.964 600.126Q875.966 600.305 875.96 600.484Q875.953 600.663 875.938 600.842Q875.922 601.02 875.898 601.198Q875.874 601.375 875.841 601.551Q875.808 601.727 875.767 601.902Q875.725 602.076 875.676 602.248Q875.626 602.42 875.567 602.589Q875.509 602.759 875.442 602.925Q875.375 603.091 875.301 603.254Q875.226 603.417 875.143 603.576Q875.061 603.735 874.97 603.889Q874.88 604.044 874.782 604.194Q874.684 604.344 874.579 604.489Q874.474 604.634 874.361 604.774Q874.249 604.913 874.13 605.047Q874.011 605.181 873.886 605.309Q873.761 605.437 873.629 605.559Q873.498 605.68 873.36 605.795Q873.223 605.911 873.08 606.019Q872.937 606.127 872.789 606.228Q872.641 606.329 872.488 606.422Q872.336 606.516 872.179 606.602Q872.021 606.688 871.86 606.766Q871.699 606.844 871.534 606.914Q871.369 606.984 871.201 607.046Q871.033 607.108 870.862 607.161Q870.692 607.214 870.52 607.259Q870.347 607.304 870.173 607.34Q869.999 607.376 869.823 607.404Q869.647 607.432 869.47 607.451Q869.293 607.47 869.115 607.481Q868.937 607.491 868.759 607.493Q868.581 607.495 868.403 607.488Q868.225 607.481 868.048 607.465Q867.871 607.449 867.694 607.425Q867.518 607.401 867.343 607.368Q867.168 607.335 866.995 607.293Q866.821 607.252 866.651 607.202Q866.48 607.152 866.311 607.094Q866.143 607.035 865.978 606.969Q865.812 606.903 865.651 606.828Q865.489 606.754 865.331 606.672Q865.173 606.59 865.019 606.5Q864.865 606.41 864.716 606.313Q864.567 606.215 864.423 606.111Q864.279 606.007 864.14 605.895Q864.001 605.784 863.867 605.666Q863.734 605.548 863.607 605.423Q863.479 605.299 863.358 605.169Q863.237 605.038 863.122 604.902Q863.007 604.766 862.9 604.624Q862.792 604.482 862.691 604.335Q862.59 604.188 862.497 604.037Q862.403 603.885 862.317 603.729Q862.231 603.573 862.153 603.414Q862.075 603.254 862.005 603.09Q861.934 602.926 861.872 602.76Q861.81 602.593 861.756 602.423Q861.702 602.253 861.656 602.081Q861.611 601.909 861.574 601.735Q861.537 601.561 861.508 601.385Q861.479 601.209 861.46 601.032Q861.44 600.856 861.428 600.678Q861.417 600.5 861.414 600.322Q861.412 600.144 861.418 599.966Q861.424 599.788 861.439 599.611Q861.454 599.433 861.478 599.257Q861.501 599.081 861.533 598.905Q861.565 598.73 861.606 598.557Q861.647 598.384 861.696 598.212Q861.745 598.041 861.802 597.873Q861.859 597.704 861.925 597.539Q861.991 597.373 862.064 597.211Q862.138 597.049 862.219 596.891Q862.301 596.732 862.39 596.578Q862.479 596.424 862.575 596.274Q862.672 596.125 862.776 595.98Q862.879 595.835 862.99 595.696Q863.101 595.557 863.218 595.423Q863.335 595.289 863.459 595.161Q863.583 595.033 863.713 594.911Q863.843 594.789 863.978 594.674Q864.114 594.559 864.255 594.45Q864.396 594.342 864.542 594.24Q864.689 594.139 864.84 594.044Q864.991 593.95 865.146 593.864Q865.302 593.777 865.462 593.698Q865.621 593.619 865.784 593.548Q865.948 593.477 866.114 593.414Q866.281 593.351 866.45 593.296Z"/>
	<path d="M152.39 589.178Q152.649 589.122 152.91 589.078Q153.171 589.034 153.434 589.003Q153.697 588.973 153.961 588.955Q154.225 588.937 154.49 588.932Q154.755 588.927 155.019 588.935Q155.284 588.943 155.548 588.964Q155.812 588.985 156.074 589.019Q156.337 589.053 156.597 589.1Q156.858 589.146 157.116 589.206Q157.374 589.265 157.629 589.337Q157.883 589.409 158.134 589.494Q158.385 589.578 158.632 589.675Q158.878 589.771 159.12 589.88Q159.361 589.988 159.597 590.109Q159.833 590.229 160.063 590.361Q160.292 590.492 160.515 590.635Q160.738 590.778 160.954 590.931Q161.17 591.085 161.378 591.249Q161.586 591.413 161.785 591.587Q161.985 591.76 162.176 591.944Q162.367 592.127 162.548 592.32Q162.73 592.512 162.902 592.714Q163.074 592.915 163.236 593.124Q163.398 593.334 163.549 593.551Q163.701 593.768 163.842 593.992Q163.982 594.217 164.112 594.448Q164.241 594.678 164.359 594.915Q164.477 595.152 164.584 595.395Q164.69 595.637 164.784 595.885Q164.879 596.132 164.961 596.384Q165.043 596.636 165.112 596.891Q165.182 597.146 165.239 597.405Q165.296 597.664 165.34 597.925Q165.385 598.186 165.416 598.448Q165.447 598.711 165.466 598.975Q165.485 599.239 165.49 599.504Q165.496 599.769 165.488 600.033Q165.481 600.298 165.461 600.562Q165.44 600.826 165.407 601.088Q165.374 601.351 165.328 601.612Q165.282 601.872 165.223 602.131Q165.164 602.389 165.093 602.644Q165.021 602.899 164.937 603.15Q164.854 603.401 164.758 603.648Q164.662 603.894 164.554 604.136Q164.446 604.378 164.326 604.614Q164.207 604.85 164.076 605.08Q163.944 605.31 163.802 605.533Q163.66 605.757 163.507 605.973Q163.354 606.189 163.191 606.397Q163.027 606.605 162.854 606.805Q162.681 607.005 162.498 607.197Q162.315 607.388 162.123 607.57Q161.931 607.753 161.73 607.925Q161.529 608.098 161.32 608.26Q161.111 608.422 160.894 608.575Q160.678 608.727 160.454 608.868Q160.23 609.009 159.999 609.139Q159.769 609.269 159.532 609.388Q159.295 609.507 159.053 609.614Q158.811 609.72 158.564 609.815Q158.317 609.91 158.065 609.993Q157.814 610.076 157.559 610.146Q157.303 610.216 157.045 610.274Q156.786 610.332 156.524 610.377Q156.262 610.422 155.999 610.454Q155.735 610.486 155.47 610.505Q155.205 610.525 154.94 610.531Q154.674 610.537 154.409 610.53Q154.143 610.523 153.878 610.503Q153.613 610.483 153.35 610.45Q153.086 610.417 152.825 610.371Q152.563 610.325 152.304 610.267Q152.045 610.208 151.789 610.136Q151.534 610.065 151.281 609.981Q151.029 609.897 150.782 609.801Q150.534 609.705 150.292 609.597Q150.049 609.489 149.812 609.369Q149.575 609.249 149.344 609.117Q149.114 608.986 148.89 608.843Q148.666 608.701 148.449 608.547Q148.232 608.394 148.023 608.23Q147.814 608.066 147.614 607.892Q147.413 607.718 147.221 607.534Q147.029 607.35 146.847 607.157Q146.664 606.965 146.491 606.763Q146.318 606.561 146.156 606.351Q145.993 606.142 145.841 605.924Q145.688 605.706 145.547 605.482Q145.406 605.257 145.275 605.025Q145.145 604.794 145.027 604.556Q144.908 604.318 144.801 604.075Q144.694 603.832 144.6 603.584Q144.505 603.336 144.422 603.083Q144.34 602.831 144.27 602.575Q144.2 602.318 144.143 602.059Q144.086 601.8 144.041 601.538Q143.997 601.276 143.966 601.012Q143.934 600.749 143.916 600.484Q143.897 600.219 143.892 599.953Q143.886 599.688 143.894 599.422Q143.901 599.157 143.922 598.892Q143.943 598.627 143.976 598.364Q144.01 598.1 144.057 597.839Q144.103 597.577 144.162 597.318Q144.222 597.06 144.294 596.804Q144.366 596.548 144.45 596.297Q144.535 596.045 144.632 595.797Q144.728 595.55 144.837 595.308Q144.946 595.065 145.066 594.829Q145.187 594.592 145.319 594.362Q145.451 594.131 145.594 593.908Q145.737 593.684 145.891 593.468Q146.045 593.251 146.21 593.043Q146.374 592.834 146.549 592.634Q146.723 592.434 146.908 592.242Q147.092 592.051 147.285 591.869Q147.478 591.687 147.68 591.514Q147.882 591.342 148.093 591.18Q148.303 591.018 148.521 590.866Q148.739 590.714 148.964 590.573Q149.189 590.433 149.421 590.303Q149.653 590.173 149.891 590.055Q150.129 589.937 150.372 589.831Q150.616 589.725 150.864 589.631Q151.112 589.537 151.365 589.455Q151.618 589.373 151.874 589.304Q152.131 589.235 152.39 589.178Z"/>
	<path fill="#FEFEFE" d="M152.096 592.8Q152.265 592.737 152.437 592.682Q152.608 592.627 152.782 592.581Q152.957 592.534 153.133 592.496Q153.309 592.458 153.487 592.429Q153.665 592.4 153.844 592.38Q154.023 592.36 154.203 592.348Q154.383 592.337 154.564 592.334Q154.744 592.331 154.924 592.338Q155.104 592.344 155.284 592.359Q155.463 592.374 155.642 592.398Q155.821 592.422 155.998 592.454Q156.175 592.487 156.351 592.528Q156.526 592.57 156.7 592.62Q156.873 592.669 157.044 592.728Q157.214 592.786 157.382 592.853Q157.549 592.919 157.713 592.994Q157.877 593.069 158.037 593.152Q158.198 593.234 158.354 593.325Q158.509 593.415 158.661 593.513Q158.812 593.612 158.958 593.717Q159.105 593.822 159.246 593.935Q159.386 594.047 159.522 594.167Q159.657 594.286 159.786 594.411Q159.915 594.537 160.038 594.669Q160.161 594.801 160.277 594.939Q160.394 595.077 160.503 595.22Q160.612 595.363 160.714 595.512Q160.817 595.66 160.911 595.814Q161.006 595.967 161.093 596.125Q161.18 596.283 161.259 596.445Q161.339 596.607 161.41 596.772Q161.481 596.938 161.544 597.107Q161.607 597.276 161.662 597.448Q161.716 597.62 161.762 597.794Q161.808 597.968 161.846 598.145Q161.883 598.321 161.912 598.499Q161.941 598.677 161.961 598.856Q161.981 599.036 161.992 599.216Q162.003 599.396 162.005 599.576Q162.007 599.756 162.001 599.936Q161.994 600.116 161.979 600.296Q161.963 600.476 161.939 600.654Q161.915 600.833 161.882 601.01Q161.849 601.188 161.807 601.363Q161.765 601.538 161.715 601.712Q161.665 601.885 161.606 602.055Q161.548 602.226 161.481 602.393Q161.414 602.561 161.339 602.724Q161.263 602.888 161.18 603.048Q161.097 603.208 161.006 603.364Q160.916 603.52 160.817 603.671Q160.719 603.822 160.613 603.968Q160.507 604.114 160.395 604.255Q160.282 604.396 160.162 604.531Q160.043 604.666 159.917 604.795Q159.791 604.924 159.658 605.046Q159.526 605.169 159.388 605.285Q159.25 605.401 159.107 605.51Q158.963 605.619 158.814 605.721Q158.665 605.823 158.512 605.917Q158.358 606.011 158.2 606.098Q158.042 606.185 157.88 606.264Q157.718 606.343 157.552 606.414Q157.386 606.484 157.217 606.547Q157.048 606.609 156.877 606.664Q156.705 606.718 156.531 606.763Q156.357 606.809 156.182 606.846Q156.006 606.883 155.828 606.911Q155.65 606.94 155.472 606.959Q155.293 606.979 155.113 606.99Q154.934 607.001 154.754 607.003Q154.574 607.005 154.395 606.998Q154.215 606.991 154.036 606.976Q153.857 606.96 153.678 606.936Q153.5 606.911 153.323 606.878Q153.147 606.845 152.972 606.804Q152.797 606.762 152.624 606.712Q152.451 606.662 152.281 606.603Q152.111 606.545 151.944 606.478Q151.777 606.411 151.614 606.336Q151.451 606.261 151.291 606.178Q151.131 606.095 150.976 606.005Q150.821 605.914 150.67 605.816Q150.519 605.718 150.373 605.613Q150.228 605.507 150.087 605.395Q149.947 605.283 149.812 605.164Q149.677 605.044 149.549 604.919Q149.42 604.793 149.298 604.662Q149.175 604.53 149.059 604.392Q148.944 604.255 148.835 604.112Q148.726 603.969 148.624 603.82Q148.522 603.672 148.428 603.519Q148.333 603.366 148.246 603.208Q148.16 603.051 148.081 602.889Q148.002 602.728 147.931 602.563Q147.86 602.398 147.797 602.229Q147.734 602.06 147.68 601.889Q147.625 601.718 147.579 601.544Q147.533 601.37 147.496 601.194Q147.459 601.018 147.43 600.841Q147.401 600.663 147.381 600.484Q147.361 600.306 147.35 600.126Q147.339 599.947 147.336 599.767Q147.334 599.587 147.34 599.407Q147.347 599.228 147.362 599.048Q147.377 598.869 147.401 598.691Q147.425 598.513 147.458 598.336Q147.49 598.159 147.532 597.984Q147.573 597.809 147.623 597.636Q147.672 597.464 147.731 597.293Q147.789 597.123 147.855 596.956Q147.922 596.789 147.996 596.625Q148.071 596.462 148.154 596.302Q148.236 596.142 148.326 595.987Q148.417 595.831 148.514 595.68Q148.612 595.529 148.717 595.383Q148.822 595.237 148.934 595.097Q149.047 594.956 149.165 594.821Q149.284 594.686 149.409 594.557Q149.535 594.428 149.666 594.306Q149.798 594.183 149.935 594.067Q150.072 593.951 150.215 593.841Q150.358 593.732 150.506 593.63Q150.654 593.528 150.807 593.433Q150.96 593.339 151.117 593.251Q151.275 593.164 151.436 593.085Q151.597 593.006 151.763 592.934Q151.928 592.863 152.096 592.8Z"/>
</svg>
